# xmcd
#
# Track frame offsets: 
#        150
#        14870
#        29234
#        42592
#        57156
#        70724
#        84310
#        92342
#        104363
#        116877
#        129858
#        141989
#        155525
#        167229
#        179725
#        191742
#        207399
#        220512
#        231880
#        245001
#        256295
#        267789
#        281822
#        295314
#        309318
#        324215
#        340042
#
# Disc length: 4716 seconds
#
# Revision: 1
# Processed by: cddbd v1.5.2PL0 Copyright (c) Steve Scherf et al.
# Submitted via: ExactAudioCopyFreeDBPlugin 1.0
#
DISCID=9b126a1b
DTITLE=Various Artist - Really The Blues A Blues History - Vol 1 (189
DTITLE=3-1929) [Cd3]
DYEAR=2010
DGENRE=Blues
TTITLE0=Roba Stanley 1924 - All Night Long Blues
TTITLE1=Two Of Spades 1925 - Meddlin With The Blues
TTITLE2=Blind Andy 1925 - Frank Du Pree
TTITLE3=Sylvester Weaver 1925 - Steel String Blues
TTITLE4=Hersal Thomas 1925 - Hersal Blues
TTITLE5=Edna Thomas 1925 - Street Ries Of New Orleans
TTITLE6=Ben Harney 1925 - The Wagon
TTITLE7=Wade Ward 1925 - A Married Man's Blues
TTITLE8=New Orleans Rhythm Kings 1925 - She's Cryin' For Me
TTITLE9=Nicholas 1925 - Put Me In The Alley
TTITLE10=Papa Charlie Jackson 1925 - All I Want Is A Little Spoonful
TTITLE11=Piron's New Orleans Orch 1925 - Red Man Blues
TTITLE12=Benny Moten 1925 - South Street Blues
TTITLE13=Louise Ross 1925 - No Home Blues
TTITLE14=Lee Morse 1925 - Sugar Babe
TTITLE15=Bessie Smith 1925 - Careless Love
TTITLE16=Ma Rainey 1926 - Don't Fish In My Sea
TTITLE17=Roosevelt Graves 1926 - I'll Be Rested
TTITLE18=Henderson Double Quartet 1926 - I Want My Life To Testify
TTITLE19=The Pebbles 1926 - Can't Sleep Blues
TTITLE20=Kansas City Blues Strummers 1926 - Stringband Blues
TTITLE21=Old Pal Smoke Shop Four 1926 - Black Cat Blues
TTITLE22=Papa Stovepipe 1926 - Mama's Angel Child
TTITLE23=Sippie Wallace 1926 - Jack O'diamonds
TTITLE24=Dixieland Jugblowers 1926 - Memphis Shake
TTITLE25=Arizona Dranes 1926 - Crucifixion
TTITLE26=Leecan And Cooksey 1927 - Royal Palm Special
EXTD=
EXTT0=
EXTT1=
EXTT2=
EXTT3=
EXTT4=
EXTT5=
EXTT6=
EXTT7=
EXTT8=
EXTT9=
EXTT10=
EXTT11=
EXTT12=
EXTT13=
EXTT14=
EXTT15=
EXTT16=
EXTT17=
EXTT18=
EXTT19=
EXTT20=
EXTT21=
EXTT22=
EXTT23=
EXTT24=
EXTT25=
EXTT26=
PLAYORDER=
